<?xml version="1.0" ?>
<!DOCTYPE svg  PUBLIC '-//W3C//DTD SVG 1.1//EN'  'http://www.w3.org/Graphics/SVG/1.1/DTD/svg11.dtd'>
<!-- Uploaded to: SVG Repo, www.svgrepo.com, Generator: SVG Repo Mixer Tools -->
<svg fill="#000000" width="800px" height="800px" viewBox="0 0 2.33333 2.33333" style="shape-rendering:geometricPrecision; text-rendering:geometricPrecision; image-rendering:optimizeQuality; fill-rule:evenodd; clip-rule:evenodd" xml:space="preserve" xmlns="http://www.w3.org/2000/svg" xmlns:xlink="http://www.w3.org/1999/xlink">
<defs>
<style type="text/css">
   <![CDATA[
    .fil0 {fill:black;fill-rule:nonzero}
   ]]>
  </style>
</defs>
<g id="Layer_x0020_1">
<path class="fil0" d="M1.16667 0.313331c0.359945,0 0.651732,0.291799 0.651732,0.651736 0,0.359937 -0.291795,0.651732 -0.651732,0.651732 -0.359937,0 -0.651732,-0.291795 -0.651732,-0.651732 0,-0.359937 0.291787,-0.651736 0.651732,-0.651736zm0.432559 0.219173c-0.23889,-0.238898 -0.626228,-0.238894 -0.865118,0 -0.238898,0.238902 -0.238898,0.626224 0,0.865122 0.238898,0.238898 0.62622,0.238898 0.865118,0 0.238898,-0.238898 0.238898,-0.626224 0,-0.865122z"/>
<path class="fil0" d="M1.12006 1.6036c0.0131693,-0.0227402 -0.0213898,-0.0427205 -0.0345276,-0.02l-0.206417 0.35752 -0.0362008 -0.231516 7.08661e-005 -4.33071e-005c-0.00195276,-0.0124843 -0.0149331,-0.0207874 -0.0284843,-0.0149094l-0.21713 0.0838386 0.183197 -0.317311c0.0130669,-0.022689 -0.0214291,-0.0425866 -0.0345276,-0.0198425l-0.210429 0.36448c-0.0116299,0.0181181 0.00631496,0.0368898 0.0235,0.0302559l-1.5748e-005 -6.29921e-005 0.248264 -0.0958622 0.0408504 0.261236c0.00239764,0.0211496 0.0280551,0.0245827 0.0372677,0.00861811l-3.93701e-005 -2.3622e-005 0.234622 -0.406378z"/>
<path class="fil0" d="M1.2478 1.5836c-0.0131535,-0.0227165 -0.047685,-0.00275197 -0.0345276,0.02l0.234622 0.406378 -3.93701e-005 2.3622e-005c0.0092126,0.0159646 0.0348701,0.0125315 0.0372677,-0.00861811l0.0408504 -0.261236 0.248264 0.0958661 -1.5748e-005 6.29921e-005c0.017185,0.00663386 0.0351299,-0.0121378 0.0235,-0.0302559l-0.210433 -0.364484c-0.0130984,-0.0227441 -0.0475945,-0.00284646 -0.0345276,0.0198425l0.183201 0.317315 -0.222764 -0.0856024c-0.0109094,-0.00170472 -0.0211457,0.00575984 -0.0228504,0.0166693l7.08661e-005 4.33071e-005 -0.0362008 0.231516 -0.206417 -0.35752z"/>
<path class="fil0" d="M1.18487 0.598059l0.104197 0.18802 0.21265 0.0412756c0.00844094,-0.000704724 0.0256299,0.0184213 0.00987795,0.0342126l-0.146795 0.157382 0.0264173 0.214984 1.1811e-005 0c0.00189764,0.0154449 -0.0139882,0.0274646 -0.0287559,0.0203465l-0.195807 -0.0913268 -0.196264 0.0915394 3.93701e-006 7.87402e-006c-0.0140315,0.00654331 -0.0305315,-0.00472047 -0.0282087,-0.021252l0.0263346 -0.214299 -0.147697 -0.15835 -3.14961e-005 3.14961e-005c-0.0104055,-0.0111535 -0.00529921,-0.0306339 0.0119685,-0.0334646l0.211492 -0.0410866 0.104909 -0.189437c0.00799213,-0.0144291 0.0289764,-0.0133976 0.0356969,0.00141732zm0.0738504 0.215512l-0.0920551 -0.16611 -0.091252 0.164661c-0.00294882,0.00587795 -0.00999606,0.0117717 -0.0144882,0.0113976l-0.186331 0.0362008 0.128626 0.137906c0.0044685,0.00422047 0.00694094,0.0104291 0.00613386,0.0169921l-1.1811e-005 0 -0.0231496 0.18839 0.171618 -0.0800472c0.00525197,-0.00258661 0.0115906,-0.0028622 0.0173071,-0.00019685l-3.93701e-006 7.87402e-006 0.172024 0.0802362 -0.0230827 -0.187823c-0.00088189,-0.00583465 0.000811024,-0.012 0.00514567,-0.0166496l3.14961e-005 3.14961e-005 0.129504 -0.138846 -0.18528 -0.0359961c-0.0060315,-0.000830709 -0.0116142,-0.00438976 -0.0147913,-0.010122l5.51181e-005 -3.14961e-005z"/>
<path class="fil0" d="M1.16667 0.478146c0.268921,0 0.486921,0.218 0.486921,0.486921 0,0.268913 -0.218004,0.486917 -0.486921,0.486917 -0.268917,0 -0.486921,-0.218004 -0.486921,-0.486917 0,-0.268921 0.218,-0.486921 0.486921,-0.486921zm0.316024 0.170898c-0.174528,-0.174528 -0.45752,-0.174528 -0.632047,0 -0.174531,0.174531 -0.174528,0.457512 3.93701e-006,0.632043 0.174528,0.174528 0.457512,0.174528 0.632039,0 0.174531,-0.174531 0.174535,-0.457512 3.93701e-006,-0.632043z"/>
</g>
</svg>