<?xml version="1.0" ?>
<!-- Uploaded to: SVG Repo, www.svgrepo.com, Generator: SVG Repo Mixer Tools -->
<svg fill="#000000" width="800px" height="800px" viewBox="0 0 96 96" xmlns="http://www.w3.org/2000/svg">
<title/>
<g id="Protect">
<path d="M72.61,21.28l-24.5-5.77h-.22l-24.5,5.77a.49.49,0,0,0-.39.49V48A29.34,29.34,0,0,0,38.06,73.66l9.67,6.17a.45.45,0,0,0,.27.08.53.53,0,0,0,.24-.06l10.95-5.94,0,0A29.15,29.15,0,0,0,73,49V21.77A.49.49,0,0,0,72.61,21.28ZM72,49A28.18,28.18,0,0,1,58.7,73L48,78.83l-9.45-6A28.33,28.33,0,0,1,24,48V22.16l24-5.65,24,5.65Z"/>
<path d="M34.84,57.69a.49.49,0,0,0-.69-.16.48.48,0,0,0-.16.68,18.12,18.12,0,0,0,1.17,1.69.47.47,0,0,0,.39.19.49.49,0,0,0,.4-.8A17.55,17.55,0,0,1,34.84,57.69Z"/>
<path d="M33.9,56a18.84,18.84,0,0,1-.76-1.79.5.5,0,1,0-.94.34,18.45,18.45,0,0,0,.8,1.89.48.48,0,0,0,.45.28.63.63,0,0,0,.22-.05A.51.51,0,0,0,33.9,56Z"/>
<path d="M37.21,60.77a.5.5,0,1,0-.72.68A20,20,0,0,0,38,62.87a.49.49,0,0,0,.7-.06.51.51,0,0,0,0-.71C38.13,61.68,37.66,61.23,37.21,60.77Z"/>
<path d="M32.57,52.33c-.16-.63-.28-1.27-.38-1.91a.5.5,0,1,0-1,.14,19.84,19.84,0,0,0,.4,2,.5.5,0,0,0,.48.38l.12,0A.5.5,0,0,0,32.57,52.33Z"/>
<path d="M45.23,66.49l-1.69-1.08a.5.5,0,0,0-.54.85l1.69,1.07a.45.45,0,0,0,.27.08.49.49,0,0,0,.42-.23A.5.5,0,0,0,45.23,66.49Z"/>
<path d="M38.72,27.82l-1.95.46a.5.5,0,0,0,.11,1H37l2-.46a.5.5,0,0,0-.23-1Z"/>
<path d="M41.86,64.34l-.13-.08c-.53-.3-1.06-.62-1.56-1a.5.5,0,0,0-.69.13.51.51,0,0,0,.12.7c.53.36,1.08.7,1.61,1l.11.07a.5.5,0,0,0,.54-.84Z"/>
<path d="M31.5,41a.5.5,0,0,0,.5-.5v-2a.5.5,0,0,0-1,0v2A.5.5,0,0,0,31.5,41Z"/>
<path d="M40.78,28.35l.11,0,2-.45a.51.51,0,0,0,.37-.61.5.5,0,0,0-.6-.37l-2,.46a.5.5,0,0,0-.37.6A.5.5,0,0,0,40.78,28.35Z"/>
<path d="M33,30.18h.11l1.95-.46a.5.5,0,0,0-.23-1l-1.94.46a.5.5,0,0,0,.11,1Z"/>
<path d="M44.67,27.43h.12L46.73,27a.5.5,0,1,0-.23-1l-1.94.45a.5.5,0,0,0-.37.61A.48.48,0,0,0,44.67,27.43Z"/>
<path d="M31.5,33a.5.5,0,0,0,.5-.5v-2a.5.5,0,0,0-1,0v2A.5.5,0,0,0,31.5,33Z"/>
<path d="M31.53,49a.5.5,0,0,0,.48-.52c0-.25,0-.5,0-.75V46.5a.5.5,0,0,0-1,0v1.23c0,.26,0,.52,0,.79a.51.51,0,0,0,.5.48Z"/>
<path d="M31.5,45a.5.5,0,0,0,.5-.5v-2a.5.5,0,0,0-1,0v2A.5.5,0,0,0,31.5,45Z"/>
<path d="M31.5,37a.5.5,0,0,0,.5-.5v-2a.5.5,0,0,0-1,0v2A.5.5,0,0,0,31.5,37Z"/>
<path d="M48.11,68.23l-.09,0-1.11-.7a.5.5,0,0,0-.69.15.49.49,0,0,0,.16.69l1.35.86a.45.45,0,0,0,.27.08.53.53,0,0,0,.24-.06l.34-.18a.49.49,0,0,0,.2-.68A.49.49,0,0,0,48.11,68.23Z"/>
<path d="M60.13,29.52l1.95.45.11,0a.5.5,0,0,0,.49-.39.5.5,0,0,0-.37-.6l-2-.46a.5.5,0,0,0-.6.37A.51.51,0,0,0,60.13,29.52Z"/>
<path d="M58.44,62.48a.51.51,0,0,0,.36.15.54.54,0,0,0,.35-.14c.48-.48.94-1,1.38-1.52a.5.5,0,0,0-.78-.64,18,18,0,0,1-1.31,1.45A.5.5,0,0,0,58.44,62.48Z"/>
<path d="M63,56l.18,0a.51.51,0,0,0,.47-.31,18.57,18.57,0,0,0,.65-2,.5.5,0,1,0-1-.27c-.18.63-.39,1.25-.62,1.85A.5.5,0,0,0,63,56Z"/>
<path d="M51.62,66.32l-1.76,1a.51.51,0,0,0-.2.68.5.5,0,0,0,.68.2l1.76-1a.5.5,0,1,0-.48-.88Z"/>
<path d="M48.45,26.77l1.95.46h.11a.51.51,0,0,0,.49-.39.5.5,0,0,0-.37-.6l-2-.46a.5.5,0,0,0-.23,1Z"/>
<path d="M52.34,27.68l1.95.46h.12a.5.5,0,0,0,.11-1l-2-.46a.5.5,0,1,0-.23,1Z"/>
<path d="M64,30.42v1.24a.5.5,0,1,0,1,0V30a.51.51,0,0,0-.39-.49l-.36-.08a.5.5,0,0,0-.25,1Z"/>
<path d="M56.24,28.6l1.94.46h.12a.5.5,0,0,0,.49-.38.52.52,0,0,0-.38-.61l-1.94-.45a.5.5,0,1,0-.23,1Z"/>
<path d="M57,63.08a18.24,18.24,0,0,1-1.58,1.15.4.4,0,0,0-.13.13.44.44,0,0,0-.15,0l-1.76,1a.51.51,0,0,0-.2.68.49.49,0,0,0,.44.26.53.53,0,0,0,.24-.06l1.75-.95a.65.65,0,0,0,.18-.15.48.48,0,0,0,.18-.08,19.42,19.42,0,0,0,1.66-1.2.5.5,0,0,0-.63-.78Z"/>
<path d="M64.49,49.16a.52.52,0,0,0-.53.47,17.53,17.53,0,0,1-.23,1.93.51.51,0,0,0,.41.58h.08a.51.51,0,0,0,.5-.41q.16-1,.24-2A.51.51,0,0,0,64.49,49.16Z"/>
<path d="M62.56,56.87a.51.51,0,0,0-.68.21,17.53,17.53,0,0,1-1,1.68.51.51,0,0,0,.14.7.57.57,0,0,0,.28.08.51.51,0,0,0,.42-.23,19.44,19.44,0,0,0,1-1.77A.5.5,0,0,0,62.56,56.87Z"/>
<path d="M64.5,33.16a.5.5,0,0,0-.5.5v2a.5.5,0,0,0,1,0v-2A.5.5,0,0,0,64.5,33.16Z"/>
<path d="M64.5,37.16a.5.5,0,0,0-.5.5v2a.5.5,0,0,0,1,0v-2A.5.5,0,0,0,64.5,37.16Z"/>
<path d="M64.5,41.16a.5.5,0,0,0-.5.5v2a.5.5,0,0,0,1,0v-2A.5.5,0,0,0,64.5,41.16Z"/>
<path d="M64.5,45.16a.5.5,0,0,0-.5.5v2a.5.5,0,0,0,1,0v-2A.5.5,0,0,0,64.5,45.16Z"/>
<path d="M45.7,49.27,42,44.37a.49.49,0,0,0-.7-.1.51.51,0,0,0-.1.7l4,5.33h0s0,0,0,0l.11.08.06,0a.54.54,0,0,0,.21,0,.47.47,0,0,0,.28-.09H46l9.33-8a.51.51,0,0,0,.06-.71.51.51,0,0,0-.71-.05Z"/>
</g>
</svg>