<?xml version="1.0" encoding="iso-8859-1"?>
<!-- Uploaded to: SVG Repo, www.svgrepo.com, Generator: SVG Repo Mixer Tools -->
<!DOCTYPE svg PUBLIC "-//W3C//DTD SVG 1.1//EN" "http://www.w3.org/Graphics/SVG/1.1/DTD/svg11.dtd">
<svg height="800px" width="800px" version="1.1" id="Capa_1" xmlns="http://www.w3.org/2000/svg" xmlns:xlink="http://www.w3.org/1999/xlink" 
	 viewBox="0 0 146.754 146.754" xml:space="preserve">
<path style="fill:#000002;" d="M78.794,146.754H67.96c-26.941,0-48.859-21.918-48.859-48.859V64.063c0-1.381,1.119-2.5,2.5-2.5
	h8.234V43.542C29.834,19.533,49.368,0,73.377,0s43.542,19.533,43.542,43.542v18.021h8.234c1.381,0,2.5,1.119,2.5,2.5v33.831
	C127.653,124.835,105.735,146.754,78.794,146.754z M24.101,66.563v31.331c0,24.184,19.675,43.859,43.859,43.859h10.834
	c24.184,0,43.859-19.675,43.859-43.859V66.563H24.101z M34.834,61.563h77.084V43.542C111.919,22.29,94.629,5,73.377,5
	C52.125,5,34.834,22.29,34.834,43.542V61.563z M77.875,120.55h-8.998c-1.381,0-2.5-1.119-2.5-2.5v-13.617
	c-3.198-2.257-5.13-5.927-5.13-9.904c0-6.688,5.441-12.129,12.129-12.129s12.129,5.441,12.129,12.129
	c0,3.978-1.932,7.647-5.13,9.904v13.617C80.375,119.431,79.256,120.55,77.875,120.55z M71.378,115.55h3.998v-12.509
	c0-0.926,0.512-1.776,1.33-2.209c2.345-1.242,3.801-3.657,3.801-6.302c0-3.931-3.198-7.129-7.129-7.129
	c-3.931,0-7.129,3.198-7.129,7.129c0,2.646,1.457,5.06,3.801,6.302c0.818,0.433,1.33,1.283,1.33,2.209V115.55z"/>
</svg>