<?xml version="1.0" encoding="iso-8859-1"?>
<!-- Uploaded to: SVG Repo, www.svgrepo.com, Generator: SVG Repo Mixer Tools -->
<svg fill="#000000" height="800px" width="800px" version="1.1" id="Capa_1" xmlns="http://www.w3.org/2000/svg" xmlns:xlink="http://www.w3.org/1999/xlink" 
	 viewBox="0 0 290.002 290.002" xml:space="preserve">
<g>
	<path id="path10936" d="M145.202,0.005c-1.094-0.044-2.172,0.273-3.068,0.9c-48.9,34.23-97.549,39.096-137.133,39.096
		c-2.762,0-5.001,2.239-5.001,5c0,0.248,0.018,0.496,0.055,0.742c7.51,50.064,17.482,110.381,38.484,158.75
		c10.501,24.185,23.784,45.447,41.199,60.818s39.095,24.689,65.262,24.689s47.846-9.318,65.262-24.689s30.698-36.634,41.199-60.818
		c21.002-48.369,30.975-108.686,38.484-158.75c0.41-2.731-1.472-5.277-4.203-5.687c-0.246-0.037-0.494-0.055-0.742-0.055
		c-39.167,0-88.268-9.792-137.428-39.287C146.854,0.283,146.039,0.039,145.202,0.005z M145.241,10.839
		c47.55,27.833,94.886,38.075,133.928,38.979c-7.407,48.796-17.354,105.726-36.879,150.691
		c-10.124,23.315-22.779,43.303-38.645,57.307c-15.866,14.004-34.811,22.186-58.645,22.186s-42.779-8.182-58.645-22.186
		c-15.866-14.004-28.521-33.991-38.645-57.307C28.197,155.565,18.25,98.672,10.844,49.892
		C49.615,49.391,97.397,43.35,145.241,10.839z M84.739,52.659c-0.225,0.003-0.448,0.037-0.664,0.1
		c-19.652,5.421-38.533,7.916-55.889,8.967c-1.378,0.083-2.428,1.268-2.346,2.646c0.005,0.083,0.014,0.165,0.027,0.247
		c7.165,44.459,16.773,92.825,33.311,130.912c0.521,1.279,1.979,1.894,3.258,1.373c1.279-0.521,1.894-1.979,1.373-3.258
		c-0.014-0.035-0.03-0.07-0.046-0.105C47.883,156.964,38.37,110.079,31.27,66.489c16.863-1.159,35.102-3.661,54.133-8.91
		c1.336-0.347,2.138-1.712,1.791-3.049C86.905,53.416,85.891,52.643,84.739,52.659z M214.842,89.95
		c-1.472,0.06-2.842,0.765-3.746,1.928l-76.51,95.639l-46.051-46.051c-1.913-1.992-5.078-2.057-7.07-0.144s-2.057,5.078-0.144,7.07
		c0.047,0.049,0.095,0.097,0.144,0.144l50,50c1.953,1.952,5.119,1.952,7.072-0.001c0.13-0.13,0.253-0.267,0.368-0.411l80-100
		c1.755-2.133,1.449-5.284-0.684-7.039C217.273,90.305,216.07,89.901,214.842,89.95z"/>
</g>
</svg>