<svg class="svg-icon" style="width: 1em; height: 1em;vertical-align: middle;fill: currentColor;overflow: hidden;" viewBox="0 0 1024 1024" version="1.1" xmlns="http://www.w3.org/2000/svg"><path d="M300.9 458.3c-3 5.1-3 11.4-0.4 17.1 8.7 19.8 50.6 32 65.3 22.5 4-2.6 5.7-6.4 6.3-11.3-18.1-2.1-28-7-43.8-13.6-9.9-4-19.1-9-27.4-14.7zM538 196c21.1-3.9 35.7-11.7 46.5-17.5 18.8-10.1 30.2-16.4 44.9-1.3 4.1 4.1 8.3 11.7 11.1 20.3 0.9 2.9 1.7 5.8 2.3 9.1 21.8 1.4 42.4 12.8 51.4 33.5 4 9.3 5.6 20.1 3.9 32.2 5.1 1.9 9.8 4.3 14 7 16.5 11.1 25 29.1 21.8 48.8-0.4 3-1.1 6-2.1 9 21.3 14.5 28.2 46.9 19.1 70.2 18.7 11.4 25.1 32.4 21.8 53.3-3 19.1-14.1 39.8-32.1 55.8-1.9 1.7-3.9 3.4-5.7 5 8.3 15.8 17.8 28.8 28.4 43.1 5.8-1.6 12.4 0.4 16.3 5.7l19.3 26.2c4.1-1.7 9-0.6 12 3.1l23.4 29.8c1.7 1.9 2.7 4.3 2.7 7V817c0 5.7-4.6 10.3-10.3 10.3H639.4c-3.3 0-6.6-1.7-8.6-4.7l-38.1-59.1c-2.7-3.9-2.3-9.1 0.7-12.6l-18.8-26.7c-4-5.4-4-12.6-0.4-17.7-17.1-24.5-26.8-45.4-55.5-58.2-18.5 4-35.8 10-51.1 29.2L445.2 706c3.9 5.3 4 12.7-0.1 18.3L426.3 751c3 3.4 3.4 8.6 0.7 12.6l-38 59.2c-2 3-5.3 4.7-8.6 4.7h-187c-5.7 0-10.3-4.6-10.3-10.3V636.3c0-2.7 1-5.1 2.7-7l23.4-29.8c2.9-3.7 7.8-4.8 12-3.1l19.3-26.2c3.7-5.1 10-7.1 15.7-5.8 13-16.4 27.4-33.1 38.4-50.8-16.8-11.7-27-28.5-26.5-47.5 0.1-10.3 3.7-20.3 10.1-28.4-15.3-18.8-21.8-44.9-11.8-67.5 3.3-7.6 8.4-14.5 15.8-20-8.3-29.7 6.8-54.6 36.9-64 2.4-26.1 22.5-43.6 45.6-51.8 11.3-4 24.2-6.3 38.5-6.4 5.8-6.8 14.1-12.6 25.5-16.3 28.5-9.1 32.4-10.1 45.4-13.3 2.3-0.6 5.1-1.3 14.3-3.6 19-4.5 35.2-3.8 49.6 1.2z m74.1 13.4c-0.3-1-0.4-1.9-0.9-2.7-1.3-4.1-2.9-7.1-3.9-8.3-1.4-1.4-2.4 3.6-8.6 6.8-7.1 3.9-15.7 8.6-26.5 12.7 1.4 1.3 2.9 2.7 4.1 4.1 5.8-2.4 11.8-4.8 18-7.1s12.1-4.1 17.8-5.5z m-65.6 26.4c-4.6-3.9-9.1-6.8-14-9.1-10.1-4.7-21.8-5.8-36.8-2-3.1 0.9-9.4 2.3-14.4 3.6-11.8 2.9-15.3 3.7-43.2 12.6-7.8 2.6-14.8 7-14.4 16.1 0.6 10.1 9 21 18.3 24.7 3.9 1.6 10.3 1.1 17.7-0.6 10.3-2.3 21.7-7.1 32.1-12.7 16.9-12.2 35.2-22.9 54.7-32.6z m-84.3 75.7c-11.1 2-22.1 2-31.5-1.7-11.8-4.7-22.1-13.8-28.8-24.7-5-8-8.1-17.1-8.7-26.2-11.1 1.1-20.7 4.1-28 8.4-12.6 7.3-19.7 18.7-13.8 33.9 8.4 22 37.7 41.1 65.5 52.4 9.1 3.7 25.7 10.1 33.9 10.7 22.8 1.8 31.4-28.7 11.4-52.8z m99.3 327.7c13.6 12.6 26 33 36.7 48.4L738 582.2c-9.7-13.3-19-25.7-27.1-40.2-5.6 4.6-10.1 8.1-13.7 10.6l-94.3 66.6c-14.4 10.1-28.1 16-41.4 20z m202.4-38.4L608 718.5l10 14.3 156.2-118-10.3-14z m-441.5-74c-11.8 19.5-26.8 37.1-40.9 54.9l139.8 105.4 22.4-28.4c25.5-32.4 52.4-37.4 81.5-42.8 19.3-3.6 39.7-7.3 60.2-21.8l94.3-66.6c13.7-9.7 27.8-22.7 40.4-33.8 12.7-11.3 20.4-25.1 22.4-37.5 2.1-13.3-2.3-23.4-16.4-25.8-12.8-1.4-18.4-17.4-8.7-26.4 11.8-11 6.6-41.5-6.1-42.9-3.1 0.1-6.3-0.7-9.1-2.6-7-4.7-8.8-14.3-4.1-21.3 3.3-4.8 5.3-9.6 5.8-13.7 1.3-8.1-2.1-14.3-8.8-18.8-4.4-3-10.1-5.1-17-6.3-9.7-1.1-15.8-11-12.7-20.3 3.7-10.7 3.7-19.4 0.9-26-2.9-6.7-8.6-10.8-15.3-13.3-16.1-5.7-30.1-0.6-45.4 4.7-42.8 15.1-78 34.9-109.8 59.8l-1.3 1c8 14.1 11.6 30.1 8.8 46.1-2.3 13.7-9.1 25.8-19.5 34.1 6.7 26.7-8.3 50.2-33.5 58.8-3.7 23.3-23.8 38.7-47.4 43.1-1.6 24.7-17 41.1-41.1 44.6-12 1.8-25.7 0.2-39.4-4.2z m130.3-121.7c1.6-2.7 2.3-6.1 1.9-10-15.3 0.4-33.5-6.7-49.1-13-34.7-14.1-67.6-37.4-80.7-65.8-16 6.4-17.4 19.4-10 33.2 24.6 45.5 119.7 87.1 137.9 55.6zM416.6 446c-41.8-5.1-93.4-34.1-119.7-68-5.7 6.8-5.6 17.1-3.3 25.5 5.3 18.7 27.8 33.8 46.4 41.4 15.3 6.3 24 11.1 44.8 12.1 11.7 0.6 25.1-2.4 31.8-11zM412 718.3L262.5 605.6 251.8 619 402 732.6l10-14.3z" fill="#3B4552" /><path d="M570.1 225.8c-0.5-0.4-0.9-0.7 0 0z" fill="#3B4552" /></svg>